<svg width="481" height="493" viewBox="0 0 481 493" fill="none" xmlns="http://www.w3.org/2000/svg">
<rect width="481" height="493" rx="240.5" fill="#272222"/>
<path d="M326.885 100.387C324.104 114.23 322.28 125.784 320.719 135.675C320.021 140.096 319.375 144.185 318.72 147.997C316.595 160.365 314.368 169.829 309.93 178.417C301.072 195.557 283.355 209.315 239.648 235.425C196.899 212.303 179.671 199.289 171.055 181.793C166.734 173.018 164.564 163.086 162.468 150.107C161.861 146.348 161.26 142.334 160.615 138.022C159.036 127.473 157.19 115.14 154.332 100.389C154.34 67.9259 162.21 47.0004 176.723 34.1718C191.258 21.325 212.562 16.5 239.66 16.5C266.758 16.5 288.541 21.3247 303.552 34.177C318.538 47.0082 326.877 67.9335 326.885 100.387Z" fill="#272222" stroke="#D5A154"/>
<path d="M263.197 187.899C263.417 187.732 263.461 187.419 263.294 187.198C263.128 186.978 262.814 186.935 262.594 187.101L263.197 187.899ZM244.823 185.58L245.24 185.857L244.823 185.58ZM244.949 185.436L245.279 185.812L244.949 185.436ZM238.598 185.414L238.899 185.015L238.598 185.414ZM256.019 187.894L255.765 188.325L256.019 187.894ZM250.479 184.626L250.225 185.057L250.479 184.626ZM237.926 184.908L237.626 185.308L237.926 184.908ZM238.783 185.624L238.348 185.871L238.783 185.624ZM226.962 188.534L232.911 185.038L232.404 184.176L226.455 187.672L226.962 188.534ZM250.225 185.057L255.765 188.325L256.274 187.464L250.733 184.196L250.225 185.057ZM237.626 185.308L238.297 185.813L238.899 185.015L238.227 184.509L237.626 185.308ZM245.076 186.103L245.24 185.857L244.407 185.304L244.243 185.55L245.076 186.103ZM245.279 185.812L245.647 185.489L244.987 184.737L244.619 185.061L245.279 185.812ZM245.24 185.857C245.251 185.84 245.264 185.825 245.279 185.812L244.619 185.061C244.538 185.132 244.466 185.214 244.407 185.304L245.24 185.857ZM238.297 185.813C238.318 185.829 238.335 185.849 238.348 185.871L239.217 185.377C239.137 185.236 239.028 185.112 238.899 185.015L238.297 185.813ZM255.765 188.325C258.1 189.702 261.035 189.534 263.197 187.899L262.594 187.101C260.755 188.492 258.259 188.635 256.274 187.464L255.765 188.325ZM220.359 187.872C222.181 189.507 224.851 189.774 226.962 188.534L226.455 187.672C224.72 188.691 222.525 188.471 221.027 187.128L220.359 187.872ZM250.733 184.196C248.902 183.116 246.584 183.334 244.987 184.737L245.647 185.489C246.919 184.371 248.766 184.196 250.225 185.057L250.733 184.196ZM232.911 185.038C234.393 184.167 236.253 184.274 237.626 185.308L238.227 184.509C236.532 183.232 234.234 183.101 232.404 184.176L232.911 185.038ZM238.348 185.871C239.804 188.431 243.448 188.556 245.076 186.103L244.243 185.55C243.027 187.382 240.305 187.289 239.217 185.377L238.348 185.871Z" fill="#D5A154"/>
<path fill-rule="evenodd" clip-rule="evenodd" d="M202.204 103.814L202.818 103.5L202.662 103.032C213.552 103.59 221.641 111.213 221.641 116C213.106 121 212.918 121 201.395 121C193.181 121 186.075 116.426 182.671 113.8L183.461 113.396C184.416 114.118 185.629 114.965 187.051 115.813C190.763 118.025 195.835 120.2 201.395 120.2C207.2 120.2 210.011 120.194 212.448 119.598C214.785 119.026 216.801 117.905 220.814 115.557C220.704 114.619 220.253 113.509 219.439 112.325C218.5 110.96 217.118 109.553 215.369 108.283C212.042 105.868 207.446 103.991 202.204 103.814Z" fill="#D5A154"/>
<path fill-rule="evenodd" clip-rule="evenodd" d="M283.941 103.013C283.567 103.004 283.191 103 282.812 103C271.289 103 262.896 111.029 262.896 116C263.934 116.498 264.803 116.995 265.638 117.473C268.997 119.396 271.798 121 282.812 121C290.934 121 297.973 116.528 301.42 113.889L300.358 113.436C299.453 114.109 298.339 114.875 297.053 115.641C293.357 117.843 288.322 120 282.812 120C275.985 120 272.442 119.378 269.991 118.496C268.765 118.056 267.785 117.541 266.766 116.965C266.564 116.851 266.358 116.733 266.148 116.613L266.148 116.613C265.475 116.228 264.757 115.816 263.944 115.403C264.077 114.537 264.492 113.519 265.219 112.426C266.114 111.083 267.438 109.695 269.129 108.439C272.51 105.927 277.282 104 282.812 104C283.063 104 283.312 104.002 283.561 104.006L283.941 103.013Z" fill="#D5A154"/>
<path d="M177.541 113H184.18V115H177.541V113Z" fill="#272222"/>
<path d="M299.882 113H306.521V115H299.882V113Z" fill="#272222"/>
<path d="M210.385 112C210.385 114.418 209.661 116.594 208.509 118.156C207.356 119.719 205.792 120.65 204.096 120.65C202.4 120.65 200.836 119.719 199.683 118.156C198.531 116.594 197.807 114.418 197.807 112C197.807 109.582 198.531 107.406 199.683 105.844C200.836 104.281 202.4 103.35 204.096 103.35C205.792 103.35 207.356 104.281 208.509 105.844C209.661 107.406 210.385 109.582 210.385 112Z" fill="#272222" stroke="#D5A154" stroke-width="0.7"/>
<path d="M288.152 111.642C288.152 113.96 287.429 116.23 286.269 117.912C285.107 119.599 283.541 120.65 281.863 120.65C280.185 120.65 278.62 119.599 277.457 117.912C276.298 116.23 275.575 113.96 275.575 111.642C275.575 109.326 276.296 107.242 277.447 105.744C278.597 104.247 280.161 103.35 281.863 103.35C283.565 103.35 285.13 104.247 286.28 105.744C287.43 107.242 288.152 109.326 288.152 111.642Z" fill="#272222" stroke="#D5A154" stroke-width="0.7"/>
<path fill-rule="evenodd" clip-rule="evenodd" d="M234.359 133V145.591C234.359 146.19 234.225 146.78 233.967 147.319L231.334 152.816C230.104 155.383 231.875 158.378 234.717 158.537L235.156 158.562L241.557 160L247.959 158.562L248.378 158.538C251.225 158.378 252.995 155.374 251.756 152.806L249.11 147.324C248.848 146.782 248.712 146.187 248.712 145.585V133H248.212V145.585C248.212 146.263 248.365 146.931 248.659 147.541L251.305 153.023C252.39 155.271 250.841 157.899 248.349 158.039L247.931 158.063L247.889 158.065L247.849 158.074L241.557 159.488L235.265 158.074L235.225 158.065L235.184 158.063L234.745 158.038C232.258 157.898 230.709 155.278 231.785 153.032L234.418 147.535C234.708 146.929 234.859 146.264 234.859 145.591V133H234.359Z" fill="#D5A154"/>
<path d="M234.359 133V132.825H234.184V133H234.359ZM233.967 147.319L234.124 147.395L233.967 147.319ZM231.334 152.816L231.492 152.891L231.334 152.816ZM234.717 158.537L234.727 158.362H234.727L234.717 158.537ZM235.156 158.562L235.194 158.391L235.18 158.388L235.165 158.387L235.156 158.562ZM241.557 160L241.519 160.171L241.557 160.179L241.596 160.171L241.557 160ZM247.959 158.562L247.949 158.387L247.934 158.388L247.92 158.391L247.959 158.562ZM248.378 158.538L248.387 158.713L248.378 158.538ZM251.756 152.806L251.598 152.882L251.756 152.806ZM249.11 147.324L248.952 147.4L249.11 147.324ZM248.712 133H248.887V132.825H248.712V133ZM248.212 133V132.825H248.037V133H248.212ZM248.659 147.541L248.817 147.465H248.817L248.659 147.541ZM251.305 153.023L251.463 152.947L251.305 153.023ZM248.349 158.039L248.34 157.864L248.349 158.039ZM247.931 158.063L247.94 158.237H247.94L247.931 158.063ZM247.889 158.065L247.88 157.89L247.865 157.891L247.851 157.894L247.889 158.065ZM247.849 158.074L247.811 157.903L247.849 158.074ZM241.557 159.488L241.519 159.658L241.557 159.667L241.596 159.658L241.557 159.488ZM235.265 158.074L235.304 157.903H235.304L235.265 158.074ZM235.225 158.065L235.263 157.894L235.249 157.891L235.235 157.89L235.225 158.065ZM235.184 158.063L235.174 158.237H235.174L235.184 158.063ZM234.745 158.038L234.755 157.863H234.755L234.745 158.038ZM231.785 153.032L231.943 153.107L231.785 153.032ZM234.418 147.535L234.26 147.46L234.418 147.535ZM234.859 133H235.034V132.825H234.859V133ZM234.184 133V145.591H234.534V133H234.184ZM234.184 145.591C234.184 146.163 234.056 146.728 233.809 147.244L234.124 147.395C234.394 146.832 234.534 146.216 234.534 145.591H234.184ZM233.809 147.244L231.176 152.74L231.492 152.891L234.124 147.395L233.809 147.244ZM231.176 152.74C229.893 155.42 231.741 158.545 234.708 158.712L234.727 158.362C232.009 158.21 230.316 155.347 231.492 152.891L231.176 152.74ZM234.708 158.712L235.146 158.737L235.165 158.387L234.727 158.362L234.708 158.712ZM235.117 158.733L241.519 160.171L241.596 159.829L235.194 158.391L235.117 158.733ZM241.596 160.171L247.997 158.733L247.92 158.391L241.519 159.829L241.596 160.171ZM247.969 158.737L248.387 158.713L248.368 158.364L247.949 158.387L247.969 158.737ZM248.387 158.713C251.36 158.546 253.207 155.411 251.913 152.73L251.598 152.882C252.784 155.338 251.091 158.211 248.368 158.364L248.387 158.713ZM251.913 152.73L249.267 147.248L248.952 147.4L251.598 152.882L251.913 152.73ZM249.267 147.248C249.017 146.729 248.887 146.161 248.887 145.585H248.537C248.537 146.214 248.679 146.834 248.952 147.4L249.267 147.248ZM248.887 145.585V133H248.537V145.585H248.887ZM248.712 132.825H248.212V133.175H248.712V132.825ZM248.387 145.585V133H248.037V145.585H248.387ZM248.817 147.465C248.534 146.879 248.387 146.236 248.387 145.585H248.037C248.037 146.289 248.196 146.984 248.502 147.617L248.817 147.465ZM251.463 152.947L248.817 147.465L248.502 147.617L251.148 153.099L251.463 152.947ZM248.359 158.214C250.976 158.067 252.602 155.307 251.463 152.947L251.148 153.099C252.178 155.234 250.707 157.731 248.34 157.864L248.359 158.214ZM247.94 158.237L248.359 158.214L248.34 157.864L247.921 157.888L247.94 158.237ZM247.899 158.24L247.94 158.237L247.921 157.888L247.88 157.89L247.899 158.24ZM247.887 158.245L247.928 158.236L247.851 157.894L247.811 157.903L247.887 158.245ZM241.596 159.658L247.887 158.245L247.811 157.903L241.519 159.317L241.596 159.658ZM235.227 158.245L241.519 159.658L241.596 159.317L235.304 157.903L235.227 158.245ZM235.187 158.236L235.227 158.245L235.304 157.903L235.263 157.894L235.187 158.236ZM235.174 158.237L235.215 158.24L235.235 157.89L235.193 157.888L235.174 158.237ZM234.736 158.213L235.174 158.237L235.193 157.888L234.755 157.863L234.736 158.213ZM231.627 152.956C230.497 155.315 232.124 158.066 234.736 158.213L234.755 157.863C232.392 157.731 230.921 155.242 231.943 153.107L231.627 152.956ZM234.26 147.46L231.627 152.956L231.943 153.107L234.575 147.611L234.26 147.46ZM234.684 145.591C234.684 146.238 234.539 146.877 234.26 147.46L234.575 147.611C234.877 146.981 235.034 146.29 235.034 145.591H234.684ZM234.684 133V145.591H235.034V133H234.684ZM234.859 132.825H234.359V133.175H234.859V132.825Z" fill="#D5A154"/>
<path fill-rule="evenodd" clip-rule="evenodd" d="M231.599 194C233.84 195.799 237.886 197 242.505 197C247.124 197 251.171 195.799 253.412 194H252.387C251.627 194.495 250.694 194.94 249.613 195.31C247.613 195.994 245.162 196.4 242.505 196.4C239.849 196.4 237.398 195.994 235.398 195.31C234.317 194.94 233.384 194.495 232.624 194H231.599Z" fill="#D5A154"/>
<g filter="url(#filter0_i_1_11)">
<path fill-rule="evenodd" clip-rule="evenodd" d="M228.754 103C224.271 89.8923 204.045 80 179.771 80C178.382 80 177.005 80.0324 175.645 80.096L228.754 103Z" fill="#272222"/>
</g>
<g filter="url(#filter1_i_1_11)">
<path fill-rule="evenodd" clip-rule="evenodd" d="M252.464 103C256.946 89.8923 277.173 80 301.446 80C302.836 80 304.212 80.0324 305.573 80.096L252.464 103Z" fill="#272222"/>
</g>
<path d="M239.888 234.888L277.167 213.011C273.197 224.939 275.034 240.129 278.486 253.734C282.057 267.807 287.381 280.277 289.939 285.872C290.919 288.017 292.435 289.839 294.298 291.265L336.489 323.55H149.368L187.895 290.867C189.277 289.695 190.438 288.308 191.272 286.682C193.745 281.859 199.333 270.066 202.654 256.03C205.872 242.432 206.979 226.66 200.992 213.08L239.438 234.891L239.664 235.02L239.888 234.888Z" fill="#272222" stroke="#D5A154" stroke-width="0.9"/>
<path d="M238.07 392.209C240.834 393.633 244.167 393.623 246.921 392.182C275.231 377.372 289.664 369.743 301.126 361.076C312.428 352.528 320.847 342.965 336.835 324.45H149.089C164.186 342.978 172.141 352.538 183.315 361.086C194.646 369.753 209.294 377.384 238.07 392.209Z" fill="#272222" stroke="#D5A154" stroke-width="0.9"/>
<path d="M150.228 323.5H335.826V324.5H150.228V323.5Z" fill="#272222" stroke="#272222" stroke-width="0.8"/>
<path d="M150.038 323L148.9 324L149.849 325L150.038 323Z" fill="#272222"/>
<path d="M336.395 323.5L337.059 324L336.395 324.67L335.447 325.5L336.395 323.5Z" fill="#272222"/>
<path fill-rule="evenodd" clip-rule="evenodd" d="M366.717 92C366.717 112.742 352.709 131.606 329.877 145.311C326.525 147.323 322.985 149.223 319.273 151H320.422C348.975 137.065 367.217 115.811 367.217 92C367.217 50.0264 310.533 16 240.609 16C170.685 16 114 50.0264 114 92C114 115.811 132.242 137.065 160.795 151H161.944C158.232 149.223 154.692 147.323 151.34 145.311C128.509 131.606 114.5 112.742 114.5 92C114.5 71.2577 128.509 52.3938 151.34 38.6886C174.162 24.9894 205.722 16.5 240.609 16.5C275.496 16.5 307.056 24.9894 329.877 38.6886C352.709 52.3938 366.717 71.2577 366.717 92Z" fill="#272222"/>
<path d="M329.877 145.311L330.006 145.526L329.877 145.311ZM319.273 151L319.165 150.775L319.273 151.25V151ZM320.422 151V151.25H320.48L320.532 151.225L320.422 151ZM160.795 151L160.686 151.225L160.737 151.25H160.795V151ZM161.944 151V151.25L162.052 150.775L161.944 151ZM151.34 145.311L151.212 145.526L151.34 145.311ZM151.34 38.6886L151.212 38.4742L151.34 38.6886ZM329.877 38.6886L329.749 38.9029L329.877 38.6886ZM330.006 145.526C352.878 131.797 366.967 112.865 366.967 92H366.467C366.467 112.62 352.54 131.416 329.749 145.097L330.006 145.526ZM319.381 151.225C323.1 149.445 326.647 147.542 330.006 145.526L329.749 145.097C326.404 147.105 322.87 149.001 319.165 150.775L319.381 151.225ZM319.273 151.25H320.422V150.75H319.273V151.25ZM320.532 151.225C349.123 137.271 367.467 115.95 367.467 92H366.967C366.967 115.672 348.827 136.859 320.313 150.775L320.532 151.225ZM367.467 92C367.467 70.8909 353.215 51.8229 330.263 38.0455C307.307 24.2652 275.608 15.75 240.609 15.75V16.25C275.533 16.25 307.139 24.748 330.006 38.4742C352.878 52.2035 366.967 71.1354 366.967 92H367.467ZM240.609 15.75C205.609 15.75 173.911 24.2652 150.954 38.0455C128.002 51.8229 113.75 70.8909 113.75 92H114.25C114.25 71.1354 128.34 52.2035 151.211 38.4742C174.078 24.748 205.684 16.25 240.609 16.25V15.75ZM113.75 92C113.75 115.95 132.094 137.271 160.686 151.225L160.905 150.775C132.39 136.859 114.25 115.672 114.25 92H113.75ZM160.795 151.25H161.944V150.75H160.795V151.25ZM151.212 145.526C154.57 147.542 158.118 149.445 161.836 151.225L162.052 150.775C158.347 149.001 154.814 147.105 151.469 145.097L151.212 145.526ZM114.25 92C114.25 112.865 128.34 131.797 151.212 145.526L151.469 145.097C128.677 131.416 114.75 112.62 114.75 92H114.25ZM151.212 38.4742C128.34 52.2035 114.25 71.1355 114.25 92H114.75C114.75 71.3799 128.677 52.584 151.469 38.9029L151.212 38.4742ZM240.609 16.25C205.684 16.25 174.078 24.748 151.212 38.4742L151.469 38.9029C174.245 25.2307 205.759 16.75 240.609 16.75V16.25ZM330.006 38.4742C307.139 24.748 275.533 16.25 240.609 16.25V16.75C275.458 16.75 306.972 25.2307 329.749 38.9029L330.006 38.4742ZM366.967 92C366.967 71.1355 352.878 52.2035 330.006 38.4742L329.749 38.9029C352.54 52.584 366.467 71.3799 366.467 92H366.967Z" fill="#D5A154"/>
<path fill-rule="evenodd" clip-rule="evenodd" d="M326.803 99C325.169 89.7012 321.678 83.7714 316.983 79.7414C310.32 74.0216 301.149 72.0413 290.991 69.8609L290.969 69.8563C273.902 66.1929 254.33 61.9919 240.729 38.0236C233.976 49.9194 225.745 56.8506 217.053 61.2027C208.199 65.6361 198.882 67.3831 190.247 69.0024L190.247 69.0024L190.22 69.0075C180.111 70.903 171.004 72.6232 164.391 78.1329C159.41 82.2822 155.795 88.6327 154.337 99H153.832C157.225 74.6858 172.402 71.8398 190.127 68.5161C207.309 65.2942 226.885 61.6234 240.443 37.5142C240.539 37.3438 240.634 37.1724 240.729 37C240.824 37.1724 240.92 37.3438 241.016 37.5142C254.511 61.5195 273.971 65.6963 291.096 69.372C308.42 73.0906 323.356 76.2964 327.311 99H326.803ZM328.273 108.744L328.231 115.389C328.299 114.356 328.334 113.317 328.334 112.273C328.334 111.059 328.313 109.884 328.273 108.744Z" fill="#D5A154"/>
<path d="M326.803 99L326.557 99.0433L326.594 99.25H326.803V99ZM316.983 79.7414L317.146 79.5517L316.983 79.7414ZM290.991 69.8609L291.043 69.6165L291.043 69.6165L290.991 69.8609ZM290.969 69.8563L290.917 70.1007L290.917 70.1007L290.969 69.8563ZM240.729 38.0236L240.947 37.9002L240.729 37.5171L240.512 37.9002L240.729 38.0236ZM217.053 61.2027L216.941 60.9792H216.941L217.053 61.2027ZM190.247 69.0024L190.201 68.7566L190.198 68.7572L190.247 69.0024ZM190.247 69.0024L190.293 69.2481L190.296 69.2475L190.247 69.0024ZM190.22 69.0075L190.173 68.7618L190.173 68.7618L190.22 69.0075ZM164.391 78.1329L164.231 77.9408L164.391 78.1329ZM154.337 99V99.25H154.554L154.584 99.0348L154.337 99ZM153.832 99L153.584 98.9654L153.545 99.25H153.832V99ZM190.127 68.5161L190.173 68.7618L190.127 68.5161ZM240.443 37.5142L240.225 37.3917V37.3917L240.443 37.5142ZM240.729 37L240.948 36.8792L240.729 36.4828L240.51 36.8792L240.729 37ZM241.016 37.5142L241.234 37.3917V37.3917L241.016 37.5142ZM291.096 69.372L291.043 69.6165L291.096 69.372ZM327.311 99V99.25H327.608L327.557 98.9571L327.311 99ZM328.231 115.389L327.981 115.387L328.481 115.405L328.231 115.389ZM328.273 108.744L328.523 108.736L328.023 108.743L328.273 108.744ZM327.05 98.9567C325.407 89.6124 321.893 83.6263 317.146 79.5517L316.821 79.9311C321.463 83.9164 324.93 89.7899 326.557 99.0433L327.05 98.9567ZM317.146 79.5517C310.425 73.7826 301.185 71.7934 291.043 69.6165L290.938 70.1053C301.113 72.2893 310.215 74.2606 316.821 79.9311L317.146 79.5517ZM291.043 69.6165L291.022 69.6118L290.917 70.1007L290.938 70.1053L291.043 69.6165ZM291.022 69.6118C273.959 65.9493 254.489 61.7656 240.947 37.9002L240.512 38.147C254.171 62.2182 273.845 66.4364 290.917 70.1007L291.022 69.6118ZM240.512 37.9002C233.784 49.752 225.59 56.6488 216.941 60.9792L217.165 61.4262C225.9 57.0524 234.169 50.0868 240.947 38.147L240.512 37.9002ZM216.941 60.9792C208.123 65.3945 198.84 67.1366 190.201 68.7566L190.293 69.2481C198.924 67.6296 208.275 65.8777 217.165 61.4262L216.941 60.9792ZM190.198 68.7572L190.198 68.7572L190.296 69.2475L190.296 69.2475L190.198 68.7572ZM190.201 68.7566L190.173 68.7618L190.266 69.2533L190.293 69.2481L190.201 68.7566ZM190.173 68.7618C180.082 70.654 170.903 72.3815 164.231 77.9408L164.551 78.3249C171.104 72.865 180.14 71.152 190.266 69.2532L190.173 68.7618ZM164.231 77.9408C159.192 82.1391 155.554 88.5523 154.089 98.9652L154.584 99.0348C156.037 88.7131 159.629 82.4254 164.551 78.3249L164.231 77.9408ZM154.337 98.75H153.832V99.25H154.337V98.75ZM190.081 68.2704C181.232 69.9298 172.953 71.4785 166.469 75.6768C159.963 79.8901 155.289 86.7516 153.584 98.9654L154.08 99.0346C155.768 86.9342 160.38 80.2156 166.741 76.0965C173.126 71.9622 181.298 70.4261 190.173 68.7618L190.081 68.2704ZM240.225 37.3917C233.471 49.4016 225.225 56.3117 216.533 60.6239C207.832 64.9403 198.677 66.6586 190.081 68.2704L190.173 68.7618C198.76 67.1517 207.983 65.4236 216.755 61.0718C225.536 56.7159 233.857 49.736 240.661 37.6367L240.225 37.3917ZM240.51 36.8792C240.415 37.051 240.32 37.2218 240.225 37.3917L240.661 37.6367C240.757 37.4658 240.853 37.2938 240.948 37.1208L240.51 36.8792ZM241.234 37.3917C241.138 37.2219 241.043 37.051 240.948 36.8792L240.51 37.1208C240.606 37.2938 240.702 37.4658 240.798 37.6367L241.234 37.3917ZM291.148 69.1276C274.028 65.4528 254.671 61.2934 241.234 37.3917L240.798 37.6367C254.352 61.7456 273.914 65.9398 291.043 69.6165L291.148 69.1276ZM327.557 98.9571C325.569 87.546 320.812 81.0032 314.352 76.8562C307.912 72.7228 299.799 70.9844 291.148 69.1276L291.043 69.6165C299.717 71.4782 307.733 73.202 314.082 77.277C320.409 81.3384 325.097 87.7503 327.065 99.0429L327.557 98.9571ZM327.311 98.75H326.803V99.25H327.311V98.75ZM328.481 115.39L328.523 108.746L328.023 108.743L327.981 115.387L328.481 115.39ZM328.481 115.405C328.549 114.367 328.584 113.323 328.584 112.273H328.084C328.084 113.312 328.05 114.345 327.982 115.372L328.481 115.405ZM328.584 112.273C328.584 111.056 328.563 109.878 328.523 108.736L328.023 108.753C328.063 109.889 328.084 111.062 328.084 112.273H328.584Z" fill="#D5A154"/>
<path d="M152.409 39C120.165 93.5106 120.639 89.5106 156.677 148.5" stroke="#D5A154" stroke-width="0.7"/>
<path d="M329.282 146C361.527 91.4894 361.527 94.9895 325.489 36" stroke="#D5A154" stroke-width="0.7"/>
<path d="M159.996 57C145.535 79.0419 141.092 98.2154 157.151 122" stroke="#D5A154" stroke-width="0.7"/>
<path d="M320.747 57C335.208 79.0419 339.651 98.2154 323.592 122" stroke="#D5A154" stroke-width="0.7"/>
<path fill-rule="evenodd" clip-rule="evenodd" d="M161.941 150H162.418V152.136C162.297 151.592 162.176 151.047 162.053 150.5L161.941 150ZM153.05 318.5C172.529 259.8 176.129 224.02 166.077 170H166.585C171.024 193.879 172.799 214.219 171.71 234.56C170.344 260.07 164.475 285.554 153.742 318H153.36V319H152.884L153.05 318.5ZM332.599 319H333.076L332.867 318.5C308.311 259.724 303.669 223.937 314.685 170H314.174C309.312 193.838 307.503 214.16 309.126 234.501C311.161 260.014 318.592 285.521 332.116 318H332.599V319ZM319.127 150.5C319.009 150.977 318.891 151.452 318.775 151.925V150H319.251L319.127 150.5Z" fill="#D5A154"/>
<path d="M162.418 150H162.818V149.6H162.418V150ZM161.941 150V149.6H161.441L161.551 150.088L161.941 150ZM162.418 152.136L162.027 152.222L162.818 152.136H162.418ZM162.053 150.5L162.443 150.413L162.443 150.412L162.053 150.5ZM166.077 170V169.6H165.595L165.683 170.073L166.077 170ZM153.05 318.5L153.429 318.626L153.429 318.626L153.05 318.5ZM166.585 170L166.979 169.927L166.918 169.6H166.585V170ZM171.71 234.56L171.31 234.539L171.71 234.56ZM153.742 318V318.4H154.031L154.122 318.126L153.742 318ZM153.36 318V317.6H152.96V318H153.36ZM153.36 319V319.4H153.76V319H153.36ZM152.884 319L152.504 318.874L152.329 319.4H152.884V319ZM332.599 319H332.199V319.4H332.599V319ZM333.076 319V319.4H333.677L333.445 318.846L333.076 319ZM332.867 318.5L332.497 318.654L332.498 318.654L332.867 318.5ZM314.685 170L315.076 170.08L315.175 169.6H314.685V170ZM314.174 170V169.6H313.848L313.782 169.92L314.174 170ZM309.126 234.501L308.727 234.533L309.126 234.501ZM332.116 318L331.747 318.154L331.85 318.4H332.116V318ZM332.599 318H332.999V317.6H332.599V318ZM318.775 151.925H318.375L319.163 152.021L318.775 151.925ZM319.127 150.5L318.739 150.403L318.739 150.404L319.127 150.5ZM318.775 150V149.6H318.375V150H318.775ZM319.251 150L319.64 150.097L319.763 149.6H319.251V150ZM162.418 149.6H161.941V150.4H162.418V149.6ZM162.818 152.136V150H162.018V152.136H162.818ZM161.663 150.587C161.785 151.134 161.907 151.679 162.027 152.222L162.808 152.049C162.688 151.506 162.566 150.96 162.443 150.413L161.663 150.587ZM161.551 150.088L161.663 150.588L162.443 150.412L162.331 149.912L161.551 150.088ZM165.683 170.073C175.722 224.015 172.132 259.726 152.67 318.374L153.429 318.626C172.926 259.873 176.537 224.024 166.47 169.927L165.683 170.073ZM166.585 169.6H166.077V170.4H166.585V169.6ZM172.109 234.581C173.2 214.201 171.421 193.829 166.979 169.927L166.192 170.073C170.627 193.93 172.397 214.237 171.31 234.539L172.109 234.581ZM154.122 318.126C164.86 285.662 170.741 260.14 172.109 234.581L171.31 234.539C169.947 259.999 164.089 285.446 153.362 317.874L154.122 318.126ZM153.36 318.4H153.742V317.6H153.36V318.4ZM153.76 319V318H152.96V319H153.76ZM152.884 319.4H153.36V318.6H152.884V319.4ZM152.67 318.374L152.504 318.874L153.263 319.126L153.429 318.626L152.67 318.374ZM332.599 319.4H333.076V318.6H332.599V319.4ZM333.445 318.846L333.236 318.346L332.498 318.654L332.707 319.154L333.445 318.846ZM333.236 318.346C320.965 288.975 313.68 265.372 310.833 242.386C307.987 219.404 309.575 197.019 315.076 170.08L314.293 169.92C308.779 196.918 307.179 219.394 310.039 242.484C312.899 265.571 320.213 289.249 332.497 318.654L333.236 318.346ZM314.685 169.6H314.174V170.4H314.685V169.6ZM313.782 169.92C308.915 193.784 307.101 214.145 308.727 234.533L309.524 234.469C307.906 214.176 309.709 193.893 314.566 170.08L313.782 169.92ZM308.727 234.533C310.767 260.104 318.215 285.655 331.747 318.154L332.486 317.846C318.969 285.386 311.555 259.923 309.524 234.469L308.727 234.533ZM332.116 318.4H332.599V317.6H332.116V318.4ZM332.199 318V319H332.999V318H332.199ZM319.163 152.021C319.28 151.547 319.397 151.073 319.515 150.596L318.739 150.404C318.62 150.88 318.503 151.356 318.386 151.83L319.163 152.021ZM318.375 150V151.925H319.175V150H318.375ZM319.251 149.6H318.775V150.4H319.251V149.6ZM319.515 150.597L319.64 150.097L318.863 149.903L318.739 150.403L319.515 150.597Z" fill="#D5A154"/>
<path d="M182.283 198C193.611 236.74 183.007 267.628 171.851 304.5" stroke="#D5A154" stroke-width="0.7"/>
<path d="M296.959 196.053C285.632 234.792 296.235 264.583 307.391 301.454" stroke="#D5A154" stroke-width="0.7"/>
<path d="M280.637 210.019C275.899 243.734 280.1 260.802 291.355 288.159" stroke="#D5A154" stroke-width="0.7"/>
<path d="M199.509 212.019C204.247 245.734 200.046 262.802 188.791 290.159" stroke="#D5A154" stroke-width="0.7"/>
<path d="M171.851 304C231.035 340.688 260.998 339.292 311.734 303.791" stroke="#D5A154" stroke-width="0.9"/>
<path d="M164.264 310.5C230.053 362.237 263.492 360.398 319.798 310.5" stroke="#D5A154" stroke-width="0.8"/>
<path d="M164.144 310.874C164.562 306.656 166.769 305.133 172.115 304.278" stroke="#D5A154" stroke-width="0.6"/>
<path d="M319.233 310.69C318.816 306.472 316.609 304.949 311.263 304.094" stroke="#D5A154" stroke-width="0.6"/>
<path d="M164.947 310.417L171.037 305.349" stroke="#272222" stroke-width="1.2"/>
<path d="M171.341 306.402L172.351 304.725L169.988 305.02L171.341 306.402Z" fill="#272222"/>
<path d="M165.612 309.64L165.264 310.798L164.526 310.044L165.612 309.64Z" fill="#272222"/>
<path d="M311.891 303.104L312.121 303.988L311.18 303.632L311.891 303.104Z" fill="#272222"/>
<path d="M318.751 310.195L319.511 310.524L318.861 311.053L318.751 310.195Z" fill="#272222"/>
<path d="M312.221 304.985L318.517 309.628" stroke="#272222" stroke-width="1.15"/>
<path d="M311.363 306.203L310.735 304.419L312.551 304.771L311.363 306.203Z" fill="#272222"/>
<path d="M317.631 309.992L318.68 308.868L318.993 310.643L317.631 309.992Z" fill="#272222"/>
<mask id="path-46-inside-1_1_11" fill="white">
<path d="M183.955 424.288C182.895 424.288 181.928 424.695 181.974 425.712V456.574C181.928 457.591 182.895 457.998 183.955 457.998V459.32H175.387V457.998C176.308 457.998 177.137 457.693 177.322 456.981L177.368 442.439H159.633V456.574C159.587 457.591 160.554 457.998 161.614 457.998V459.32H153V457.998C154.059 457.998 155.027 457.591 154.981 456.574V425.152C154.704 424.542 153.921 424.288 153.092 424.288V422.966H161.614V424.288C160.554 424.288 159.587 424.695 159.633 425.712V439.338H177.368V425.152C177.091 424.542 176.308 424.288 175.479 424.288V422.966H183.955V424.288ZM212.75 452.456H214.317V459.32H191.377V457.998C192.436 457.998 193.404 457.591 193.358 456.574V425.712C193.312 424.695 192.344 424.288 191.377 424.288V422.966H214.225V429.932H212.658C212.612 428.915 211.645 426.474 209.296 426.474H198.333V439.389H208.098C209.572 439.236 210.217 438.728 210.263 437.507H211.369V444.27H210.263C210.217 443.049 209.572 442.541 208.098 442.388H198.286V455.913H209.388C211.737 455.913 212.704 453.473 212.75 452.456ZM239.427 432.067C239.059 427.745 235.926 425.356 231.688 425.559C226.161 425.864 224.456 432.423 229.017 435.118C230.076 435.728 231.965 436.643 234.867 438.27C238.782 440.456 243.297 443.558 243.389 448.49C243.527 455.201 240.026 459.726 231.873 459.726C226.437 459.726 223.904 457.896 222.199 456.116V449.761H223.812C224.272 453.828 227.911 456.625 231.688 456.625C235.097 456.625 237.677 454.998 237.723 450.574C237.815 445.337 234.176 443.914 230.26 441.982C227.681 440.711 222.89 438.88 221.923 433.999C220.633 427.44 225.838 422.763 231.09 422.356C234.959 422.051 238.183 423.271 240.947 425.661C240.947 425.661 241.085 430.643 241.085 432.067H239.427ZM249.889 423.017H274.81V429.983H273.244C273.152 428.966 272.184 426.525 269.881 426.525H264.998V456.574C264.952 457.591 265.92 457.998 266.979 457.998V459.32H257.582V457.998C258.642 457.998 259.609 457.591 259.563 456.574V426.525H254.818C252.515 426.525 251.548 428.966 251.456 429.983H249.889V423.017ZM290.385 424.339C289.372 424.339 288.404 424.746 288.404 425.762V456.574C288.404 457.591 289.372 457.998 290.385 457.998V459.32H281.311V457.998C282.324 457.998 283.291 457.591 283.291 456.574V425.762C283.291 424.746 282.324 424.339 281.311 424.339V423.017H290.385V424.339ZM330.927 456.981C331.25 457.693 332.125 457.998 333 457.998V459.32H324.11V457.998C325.031 457.998 325.353 457.642 325.215 456.828L321.807 446.558H308.126L304.533 456.981C304.44 457.693 304.763 457.998 305.638 457.998V459.32H298.268V457.998C299.097 457.998 299.972 457.743 300.341 457.082L300.479 456.676V456.574V456.625L311.995 424.491L318.904 422L330.789 456.676L330.927 456.981ZM308.586 444.117H321.208L315.127 425.864L308.586 444.117Z"/>
</mask>
<path d="M183.955 424.288C182.895 424.288 181.928 424.695 181.974 425.712V456.574C181.928 457.591 182.895 457.998 183.955 457.998V459.32H175.387V457.998C176.308 457.998 177.137 457.693 177.322 456.981L177.368 442.439H159.633V456.574C159.587 457.591 160.554 457.998 161.614 457.998V459.32H153V457.998C154.059 457.998 155.027 457.591 154.981 456.574V425.152C154.704 424.542 153.921 424.288 153.092 424.288V422.966H161.614V424.288C160.554 424.288 159.587 424.695 159.633 425.712V439.338H177.368V425.152C177.091 424.542 176.308 424.288 175.479 424.288V422.966H183.955V424.288ZM212.75 452.456H214.317V459.32H191.377V457.998C192.436 457.998 193.404 457.591 193.358 456.574V425.712C193.312 424.695 192.344 424.288 191.377 424.288V422.966H214.225V429.932H212.658C212.612 428.915 211.645 426.474 209.296 426.474H198.333V439.389H208.098C209.572 439.236 210.217 438.728 210.263 437.507H211.369V444.27H210.263C210.217 443.049 209.572 442.541 208.098 442.388H198.286V455.913H209.388C211.737 455.913 212.704 453.473 212.75 452.456ZM239.427 432.067C239.059 427.745 235.926 425.356 231.688 425.559C226.161 425.864 224.456 432.423 229.017 435.118C230.076 435.728 231.965 436.643 234.867 438.27C238.782 440.456 243.297 443.558 243.389 448.49C243.527 455.201 240.026 459.726 231.873 459.726C226.437 459.726 223.904 457.896 222.199 456.116V449.761H223.812C224.272 453.828 227.911 456.625 231.688 456.625C235.097 456.625 237.677 454.998 237.723 450.574C237.815 445.337 234.176 443.914 230.26 441.982C227.681 440.711 222.89 438.88 221.923 433.999C220.633 427.44 225.838 422.763 231.09 422.356C234.959 422.051 238.183 423.271 240.947 425.661C240.947 425.661 241.085 430.643 241.085 432.067H239.427ZM249.889 423.017H274.81V429.983H273.244C273.152 428.966 272.184 426.525 269.881 426.525H264.998V456.574C264.952 457.591 265.92 457.998 266.979 457.998V459.32H257.582V457.998C258.642 457.998 259.609 457.591 259.563 456.574V426.525H254.818C252.515 426.525 251.548 428.966 251.456 429.983H249.889V423.017ZM290.385 424.339C289.372 424.339 288.404 424.746 288.404 425.762V456.574C288.404 457.591 289.372 457.998 290.385 457.998V459.32H281.311V457.998C282.324 457.998 283.291 457.591 283.291 456.574V425.762C283.291 424.746 282.324 424.339 281.311 424.339V423.017H290.385V424.339ZM330.927 456.981C331.25 457.693 332.125 457.998 333 457.998V459.32H324.11V457.998C325.031 457.998 325.353 457.642 325.215 456.828L321.807 446.558H308.126L304.533 456.981C304.44 457.693 304.763 457.998 305.638 457.998V459.32H298.268V457.998C299.097 457.998 299.972 457.743 300.341 457.082L300.479 456.676V456.574V456.625L311.995 424.491L318.904 422L330.789 456.676L330.927 456.981ZM308.586 444.117H321.208L315.127 425.864L308.586 444.117Z" fill="#272222"/>
<path d="M155.573 425.712V425.559H154.573V425.712H155.573ZM177.96 425.712V425.559H176.96V425.712H177.96ZM177.868 456.727V456.574H176.868V456.727H177.868ZM331.289 456.676V456.574H330.289V456.676H331.289ZM183.955 424.288V425.288H184.955V424.288H183.955ZM181.974 425.712H182.974V425.689L182.973 425.666L181.974 425.712ZM181.974 456.574L182.973 456.619L182.974 456.597V456.574H181.974ZM183.955 457.998H184.955V456.998H183.955V457.998ZM183.955 459.32V460.32H184.955V459.32H183.955ZM175.387 459.32H174.387V460.32H175.387V459.32ZM175.387 457.998V456.998H174.387V457.998H175.387ZM177.322 456.981L178.29 457.231L178.321 457.11L178.322 456.984L177.322 456.981ZM177.368 442.439L178.368 442.442L178.371 441.439H177.368V442.439ZM159.633 442.439V441.439H158.633V442.439H159.633ZM159.633 456.574L160.632 456.619L160.633 456.597V456.574H159.633ZM161.614 457.998H162.614V456.998H161.614V457.998ZM161.614 459.32V460.32H162.614V459.32H161.614ZM153 459.32H152V460.32H153V459.32ZM153 457.998V456.998H152V457.998H153ZM154.981 456.574H153.981V456.597L153.982 456.619L154.981 456.574ZM154.981 425.152H155.981V424.936L155.892 424.74L154.981 425.152ZM153.092 424.288H152.092V425.288H153.092V424.288ZM153.092 422.966V421.966H152.092V422.966H153.092ZM161.614 422.966H162.614V421.966H161.614V422.966ZM161.614 424.288V425.288H162.614V424.288H161.614ZM159.633 425.712H160.633V425.689L160.632 425.666L159.633 425.712ZM159.633 439.338H158.633V440.338H159.633V439.338ZM177.368 439.338V440.338H178.368V439.338H177.368ZM177.368 425.152H178.368V424.936L178.279 424.74L177.368 425.152ZM175.479 424.288H174.479V425.288H175.479V424.288ZM175.479 422.966V421.966H174.479V422.966H175.479ZM183.955 422.966H184.955V421.966H183.955V422.966ZM212.75 452.456V451.456H211.795L211.752 452.41L212.75 452.456ZM214.317 452.456H215.317V451.456H214.317V452.456ZM214.317 459.32V460.32H215.317V459.32H214.317ZM191.377 459.32H190.377V460.32H191.377V459.32ZM191.377 457.998V456.998H190.377V457.998H191.377ZM193.358 456.574H192.358V456.597L192.359 456.619L193.358 456.574ZM193.358 425.712H194.358V425.689L194.357 425.666L193.358 425.712ZM191.377 424.288H190.377V425.288H191.377V424.288ZM191.377 422.966V421.966H190.377V422.966H191.377ZM214.225 422.966H215.225V421.966H214.225V422.966ZM214.225 429.932V430.932H215.225V429.932H214.225ZM212.658 429.932L211.659 429.977L211.703 430.932H212.658V429.932ZM198.333 426.474V425.474H197.333V426.474H198.333ZM198.333 439.389H197.333V440.389H198.333V439.389ZM208.098 439.389V440.389H208.15L208.201 440.383L208.098 439.389ZM210.263 437.507V436.507H209.3L209.264 437.47L210.263 437.507ZM211.369 437.507H212.369V436.507H211.369V437.507ZM211.369 444.27V445.27H212.369V444.27H211.369ZM210.263 444.27L209.264 444.307L209.3 445.27H210.263V444.27ZM208.098 442.388L208.201 441.394L208.15 441.388H208.098V442.388ZM198.286 442.388V441.388H197.286V442.388H198.286ZM198.286 455.913H197.286V456.913H198.286V455.913ZM239.427 432.067L238.431 432.152L238.509 433.067H239.427V432.067ZM231.688 425.559L231.641 424.56L231.633 424.561L231.688 425.559ZM229.017 435.118L228.508 435.979L228.518 435.984L229.017 435.118ZM234.867 438.27L234.378 439.142L234.379 439.143L234.867 438.27ZM243.389 448.49L242.389 448.508L242.389 448.51L243.389 448.49ZM222.199 456.116H221.199V456.518L221.477 456.808L222.199 456.116ZM222.199 449.761V448.761H221.199V449.761H222.199ZM223.812 449.761L224.805 449.648L224.705 448.761H223.812V449.761ZM237.723 450.574L236.723 450.557L236.723 450.564L237.723 450.574ZM230.26 441.982L230.703 441.085L230.702 441.085L230.26 441.982ZM221.923 433.999L220.942 434.192L220.942 434.194L221.923 433.999ZM231.09 422.356L231.167 423.353L231.168 423.353L231.09 422.356ZM240.947 425.661L241.947 425.633L241.935 425.193L241.601 424.904L240.947 425.661ZM241.085 432.067V433.067H242.085V432.067H241.085ZM249.889 423.017V422.017H248.889V423.017H249.889ZM274.81 423.017H275.81V422.017H274.81V423.017ZM274.81 429.983V430.983H275.81V429.983H274.81ZM273.244 429.983L272.248 430.073L272.33 430.983H273.244V429.983ZM264.998 426.525V425.525H263.998V426.525H264.998ZM264.998 456.574L265.997 456.619L265.998 456.597V456.574H264.998ZM266.979 457.998H267.979V456.998H266.979V457.998ZM266.979 459.32V460.32H267.979V459.32H266.979ZM257.582 459.32H256.582V460.32H257.582V459.32ZM257.582 457.998V456.998H256.582V457.998H257.582ZM259.563 456.574H258.563V456.597L258.564 456.619L259.563 456.574ZM259.563 426.525H260.563V425.525H259.563V426.525ZM251.456 429.983V430.983H252.369L252.451 430.073L251.456 429.983ZM249.889 429.983H248.889V430.983H249.889V429.983ZM290.385 424.339V425.339H291.385V424.339H290.385ZM290.385 457.998H291.385V456.998H290.385V457.998ZM290.385 459.32V460.32H291.385V459.32H290.385ZM281.311 459.32H280.311V460.32H281.311V459.32ZM281.311 457.998V456.998H280.311V457.998H281.311ZM281.311 424.339H280.311V425.339H281.311V424.339ZM281.311 423.017V422.017H280.311V423.017H281.311ZM290.385 423.017H291.385V422.017H290.385V423.017ZM330.927 456.981L330.016 457.393L330.016 457.393L330.927 456.981ZM333 457.998H334V456.998H333V457.998ZM333 459.32V460.32H334V459.32H333ZM324.11 459.32H323.11V460.32H324.11V459.32ZM324.11 457.998V456.998H323.11V457.998H324.11ZM325.215 456.828L326.201 456.661L326.188 456.586L326.164 456.513L325.215 456.828ZM321.807 446.558L322.756 446.243L322.528 445.558H321.807V446.558ZM308.126 446.558V445.558H307.413L307.18 446.232L308.126 446.558ZM304.533 456.981L303.587 456.655L303.554 456.751L303.541 456.852L304.533 456.981ZM305.638 457.998H306.638V456.998H305.638V457.998ZM305.638 459.32V460.32H306.638V459.32H305.638ZM298.268 459.32H297.268V460.32H298.268V459.32ZM298.268 457.998V456.998H297.268V457.998H298.268ZM300.341 457.082L301.214 457.569L301.258 457.49L301.288 457.404L300.341 457.082ZM300.479 456.676L301.426 456.997L301.479 456.841V456.676H300.479ZM300.479 456.625H299.479L301.42 456.962L300.479 456.625ZM311.995 424.491L311.656 423.551L311.212 423.71L311.054 424.154L311.995 424.491ZM318.904 422L319.85 421.676L319.521 420.715L318.565 421.059L318.904 422ZM330.789 456.676L329.843 457L329.858 457.045L329.878 457.088L330.789 456.676ZM308.586 444.117L307.645 443.78L307.166 445.117H308.586V444.117ZM321.208 444.117V445.117H322.595L322.156 443.801L321.208 444.117ZM315.127 425.864L316.076 425.548L315.162 422.804L314.186 425.527L315.127 425.864ZM183.955 423.288C183.323 423.288 182.608 423.405 182.022 423.769C181.377 424.17 180.934 424.852 180.975 425.757L182.973 425.666C182.969 425.58 182.987 425.551 182.989 425.546C182.994 425.538 183.012 425.509 183.077 425.468C183.229 425.374 183.527 425.288 183.955 425.288V423.288ZM180.974 425.712V456.574H182.974V425.712H180.974ZM180.975 456.529C180.934 457.433 181.377 458.116 182.022 458.517C182.608 458.88 183.323 458.998 183.955 458.998V456.998C183.527 456.998 183.229 456.911 183.077 456.818C183.012 456.777 182.994 456.748 182.989 456.739C182.987 456.735 182.969 456.706 182.973 456.619L180.975 456.529ZM182.955 457.998V459.32H184.955V457.998H182.955ZM183.955 458.32H175.387V460.32H183.955V458.32ZM176.387 459.32V457.998H174.387V459.32H176.387ZM175.387 458.998C175.943 458.998 176.541 458.908 177.062 458.658C177.599 458.401 178.105 457.944 178.29 457.231L176.354 456.73C176.35 456.742 176.347 456.75 176.334 456.764C176.318 456.782 176.279 456.816 176.199 456.854C176.03 456.935 175.752 456.998 175.387 456.998V458.998ZM178.322 456.984L178.368 442.442L176.368 442.436L176.322 456.978L178.322 456.984ZM177.368 441.439H159.633V443.439H177.368V441.439ZM158.633 442.439V456.574H160.633V442.439H158.633ZM158.634 456.529C158.593 457.433 159.036 458.116 159.682 458.517C160.267 458.88 160.982 458.998 161.614 458.998V456.998C161.186 456.998 160.888 456.911 160.736 456.818C160.671 456.777 160.653 456.748 160.648 456.739C160.646 456.735 160.628 456.706 160.632 456.619L158.634 456.529ZM160.614 457.998V459.32H162.614V457.998H160.614ZM161.614 458.32H153V460.32H161.614V458.32ZM154 459.32V457.998H152V459.32H154ZM153 458.998C153.632 458.998 154.347 458.88 154.932 458.517C155.578 458.116 156.021 457.433 155.98 456.529L153.982 456.619C153.986 456.706 153.968 456.735 153.966 456.739C153.961 456.748 153.943 456.777 153.877 456.818C153.726 456.911 153.428 456.998 153 456.998V458.998ZM155.981 456.574V425.152H153.981V456.574H155.981ZM155.892 424.74C155.621 424.141 155.124 423.776 154.63 423.569C154.141 423.364 153.598 423.288 153.092 423.288V425.288C153.415 425.288 153.679 425.339 153.858 425.414C154.032 425.487 154.065 425.553 154.07 425.565L155.892 424.74ZM154.092 424.288V422.966H152.092V424.288H154.092ZM153.092 423.966H161.614V421.966H153.092V423.966ZM160.614 422.966V424.288H162.614V422.966H160.614ZM161.614 423.288C160.982 423.288 160.267 423.405 159.682 423.769C159.036 424.17 158.593 424.852 158.634 425.757L160.632 425.666C160.628 425.58 160.646 425.551 160.648 425.546C160.653 425.538 160.671 425.509 160.736 425.468C160.888 425.374 161.186 425.288 161.614 425.288V423.288ZM158.633 425.712V439.338H160.633V425.712H158.633ZM159.633 440.338H177.368V438.338H159.633V440.338ZM178.368 439.338V425.152H176.368V439.338H178.368ZM178.279 424.74C178.008 424.141 177.511 423.776 177.017 423.569C176.528 423.364 175.985 423.288 175.479 423.288V425.288C175.802 425.288 176.066 425.339 176.245 425.414C176.419 425.487 176.452 425.553 176.457 425.565L178.279 424.74ZM176.479 424.288V422.966H174.479V424.288H176.479ZM175.479 423.966H183.955V421.966H175.479V423.966ZM182.955 422.966V424.288H184.955V422.966H182.955ZM212.75 453.456H214.317V451.456H212.75V453.456ZM213.317 452.456V459.32H215.317V452.456H213.317ZM214.317 458.32H191.377V460.32H214.317V458.32ZM192.377 459.32V457.998H190.377V459.32H192.377ZM191.377 458.998C192.009 458.998 192.723 458.88 193.309 458.517C193.955 458.116 194.398 457.433 194.357 456.529L192.359 456.619C192.363 456.706 192.345 456.735 192.343 456.739C192.338 456.748 192.32 456.777 192.254 456.818C192.103 456.911 191.805 456.998 191.377 456.998V458.998ZM194.358 456.574V425.712H192.358V456.574H194.358ZM194.357 425.666C194.317 424.792 193.857 424.152 193.24 423.769C192.665 423.412 191.98 423.288 191.377 423.288V425.288C191.741 425.288 192.024 425.368 192.185 425.468C192.259 425.514 192.295 425.556 192.315 425.587C192.332 425.615 192.354 425.664 192.359 425.757L194.357 425.666ZM192.377 424.288V422.966H190.377V424.288H192.377ZM191.377 423.966H214.225V421.966H191.377V423.966ZM213.225 422.966V429.932H215.225V422.966H213.225ZM214.225 428.932H212.658V430.932H214.225V428.932ZM213.657 429.886C213.625 429.172 213.3 428.119 212.647 427.23C211.97 426.308 210.869 425.474 209.296 425.474V427.474C210.072 427.474 210.629 427.86 211.035 428.413C211.464 428.999 211.646 429.674 211.659 429.977L213.657 429.886ZM209.296 425.474H198.333V427.474H209.296V425.474ZM197.333 426.474V439.389H199.333V426.474H197.333ZM198.333 440.389H208.098V438.389H198.333V440.389ZM208.201 440.383C209.002 440.3 209.78 440.107 210.364 439.61C210.996 439.072 211.233 438.332 211.262 437.545L209.264 437.47C209.247 437.904 209.138 438.027 209.068 438.087C208.95 438.187 208.668 438.324 207.995 438.394L208.201 440.383ZM210.263 438.507H211.369V436.507H210.263V438.507ZM210.369 437.507V444.27H212.369V437.507H210.369ZM211.369 443.27H210.263V445.27H211.369V443.27ZM211.262 444.232C211.233 443.446 210.996 442.705 210.364 442.167C209.78 441.67 209.002 441.477 208.201 441.394L207.995 443.383C208.668 443.453 208.95 443.59 209.068 443.69C209.138 443.75 209.247 443.874 209.264 444.307L211.262 444.232ZM208.098 441.388H198.286V443.388H208.098V441.388ZM197.286 442.388V455.913H199.286V442.388H197.286ZM198.286 456.913H209.388V454.913H198.286V456.913ZM209.388 456.913C210.961 456.913 212.062 456.079 212.739 455.157C213.392 454.268 213.717 453.215 213.749 452.501L211.752 452.41C211.738 452.713 211.556 453.389 211.127 453.974C210.721 454.527 210.164 454.913 209.388 454.913V456.913ZM240.424 431.982C240.219 429.587 239.236 427.647 237.642 426.342C236.057 425.045 233.957 424.449 231.641 424.56L231.736 426.558C233.658 426.466 235.243 426.963 236.375 427.89C237.499 428.81 238.266 430.225 238.431 432.152L240.424 431.982ZM231.633 424.561C228.44 424.737 226.265 426.749 225.605 429.18C224.944 431.614 225.827 434.395 228.508 435.979L229.525 434.257C227.646 433.146 227.102 431.3 227.535 429.704C227.969 428.107 229.409 426.686 231.744 426.558L231.633 424.561ZM228.518 435.984C229.069 436.302 229.832 436.697 230.786 437.198C231.749 437.704 232.938 438.335 234.378 439.142L235.356 437.398C233.894 436.578 232.687 435.938 231.716 435.427C230.735 434.912 230.024 434.544 229.516 434.251L228.518 435.984ZM234.379 439.143C236.318 440.226 238.321 441.491 239.847 443.05C241.36 444.596 242.349 446.374 242.389 448.508L244.388 448.471C244.336 445.674 243.022 443.435 241.276 441.651C239.543 439.879 237.331 438.501 235.354 437.397L234.379 439.143ZM242.389 448.51C242.455 451.698 241.654 454.215 240.016 455.935C238.383 457.649 235.769 458.726 231.873 458.726V460.726C236.13 460.726 239.342 459.541 241.464 457.315C243.58 455.094 244.461 451.993 244.388 448.469L242.389 448.51ZM231.873 458.726C229.269 458.726 227.42 458.289 226.044 457.675C224.672 457.064 223.715 456.253 222.922 455.425L221.477 456.808C222.388 457.759 223.55 458.754 225.23 459.502C226.905 460.249 229.04 460.726 231.873 460.726V458.726ZM223.199 456.116V449.761H221.199V456.116H223.199ZM222.199 450.761H223.812V448.761H222.199V450.761ZM222.818 449.873C223.342 454.501 227.459 457.625 231.688 457.625V455.625C228.364 455.625 225.202 453.156 224.805 449.648L222.818 449.873ZM231.688 457.625C233.536 457.625 235.308 457.185 236.632 456.005C237.975 454.808 238.698 452.992 238.723 450.585L236.723 450.564C236.702 452.58 236.111 453.79 235.301 454.512C234.472 455.251 233.25 455.625 231.688 455.625V457.625ZM238.723 450.592C238.774 447.686 237.768 445.743 236.164 444.296C234.646 442.926 232.588 442.015 230.703 441.085L229.818 442.878C231.848 443.88 233.568 444.647 234.825 445.781C235.996 446.838 236.764 448.226 236.723 450.557L238.723 450.592ZM230.702 441.085C229.344 440.415 227.63 439.698 226.086 438.543C224.573 437.412 223.325 435.929 222.904 433.805L220.942 434.194C221.488 436.95 223.119 438.823 224.888 440.145C226.626 441.444 228.597 442.277 229.818 442.879L230.702 441.085ZM222.904 433.806C221.757 427.972 226.363 423.725 231.167 423.353L231.012 421.359C225.314 421.8 219.509 426.908 220.942 434.192L222.904 433.806ZM231.168 423.353C234.749 423.071 237.714 424.187 240.293 426.417L241.601 424.904C238.653 422.355 235.169 421.031 231.011 421.359L231.168 423.353ZM240.947 425.661C239.948 425.688 239.948 425.689 239.948 425.689C239.948 425.689 239.948 425.689 239.948 425.689C239.948 425.689 239.948 425.689 239.948 425.689C239.948 425.69 239.948 425.691 239.948 425.692C239.948 425.694 239.948 425.698 239.948 425.703C239.948 425.712 239.949 425.726 239.949 425.745C239.95 425.781 239.952 425.835 239.954 425.905C239.957 426.044 239.963 426.244 239.969 426.488C239.982 426.977 239.999 427.643 240.017 428.354C240.051 429.783 240.085 431.37 240.085 432.067H242.085C242.085 431.34 242.051 429.725 242.016 428.306C241.999 427.593 241.981 426.925 241.969 426.435C241.962 426.19 241.957 425.99 241.953 425.85C241.951 425.781 241.949 425.727 241.948 425.69C241.948 425.671 241.948 425.657 241.947 425.648C241.947 425.643 241.947 425.639 241.947 425.637C241.947 425.636 241.947 425.635 241.947 425.634C241.947 425.634 241.947 425.633 241.947 425.633C241.947 425.633 241.947 425.633 241.947 425.633C241.947 425.633 241.947 425.633 240.947 425.661ZM241.085 431.067H239.427V433.067H241.085V431.067ZM249.889 424.017H274.81V422.017H249.889V424.017ZM273.81 423.017V429.983H275.81V423.017H273.81ZM274.81 428.983H273.244V430.983H274.81V428.983ZM274.24 429.892C274.177 429.206 273.849 428.168 273.198 427.281C272.527 426.367 271.439 425.525 269.881 425.525V427.525C270.626 427.525 271.174 427.903 271.585 428.464C272.017 429.052 272.218 429.742 272.248 430.073L274.24 429.892ZM269.881 425.525H264.998V427.525H269.881V425.525ZM263.998 426.525V456.574H265.998V426.525H263.998ZM263.999 456.529C263.958 457.433 264.401 458.116 265.047 458.517C265.632 458.88 266.347 458.998 266.979 458.998V456.998C266.551 456.998 266.253 456.911 266.102 456.818C266.036 456.777 266.018 456.748 266.013 456.739C266.011 456.735 265.993 456.706 265.997 456.619L263.999 456.529ZM265.979 457.998V459.32H267.979V457.998H265.979ZM266.979 458.32H257.582V460.32H266.979V458.32ZM258.582 459.32V457.998H256.582V459.32H258.582ZM257.582 458.998C258.214 458.998 258.929 458.88 259.514 458.517C260.16 458.116 260.603 457.433 260.562 456.529L258.564 456.619C258.568 456.706 258.55 456.735 258.548 456.739C258.543 456.748 258.525 456.777 258.46 456.818C258.308 456.911 258.01 456.998 257.582 456.998V458.998ZM260.563 456.574V426.525H258.563V456.574H260.563ZM259.563 425.525H254.818V427.525H259.563V425.525ZM254.818 425.525C253.26 425.525 252.172 426.367 251.502 427.281C250.851 428.168 250.522 429.206 250.46 429.892L252.451 430.073C252.481 429.742 252.682 429.052 253.114 428.464C253.526 427.903 254.073 427.525 254.818 427.525V425.525ZM251.456 428.983H249.889V430.983H251.456V428.983ZM250.889 429.983V423.017H248.889V429.983H250.889ZM290.385 423.339C289.768 423.339 289.068 423.459 288.487 423.82C287.857 424.211 287.404 424.872 287.404 425.762H289.404C289.404 425.673 289.424 425.634 289.433 425.618C289.445 425.598 289.473 425.562 289.542 425.519C289.699 425.422 289.989 425.339 290.385 425.339V423.339ZM287.404 425.762V456.574H289.404V425.762H287.404ZM287.404 456.574C287.404 457.464 287.857 458.125 288.487 458.517C289.068 458.877 289.768 458.998 290.385 458.998V456.998C289.989 456.998 289.699 456.915 289.542 456.818C289.473 456.774 289.445 456.739 289.433 456.719C289.424 456.702 289.404 456.663 289.404 456.574H287.404ZM289.385 457.998V459.32H291.385V457.998H289.385ZM290.385 458.32H281.311V460.32H290.385V458.32ZM282.311 459.32V457.998H280.311V459.32H282.311ZM281.311 458.998C281.928 458.998 282.628 458.877 283.209 458.517C283.839 458.125 284.291 457.464 284.291 456.574H282.291C282.291 456.663 282.272 456.702 282.262 456.719C282.251 456.739 282.223 456.774 282.154 456.818C281.997 456.915 281.707 456.998 281.311 456.998V458.998ZM284.291 456.574V425.762H282.291V456.574H284.291ZM284.291 425.762C284.291 424.872 283.839 424.211 283.209 423.82C282.628 423.459 281.928 423.339 281.311 423.339V425.339C281.707 425.339 281.997 425.422 282.154 425.519C282.223 425.562 282.251 425.598 282.262 425.618C282.272 425.634 282.291 425.673 282.291 425.762H284.291ZM282.311 424.339V423.017H280.311V424.339H282.311ZM281.311 424.017H290.385V422.017H281.311V424.017ZM289.385 423.017V424.339H291.385V423.017H289.385ZM330.016 457.393C330.588 458.655 331.999 458.998 333 458.998V456.998C332.25 456.998 331.911 456.73 331.838 456.568L330.016 457.393ZM332 457.998V459.32H334V457.998H332ZM333 458.32H324.11V460.32H333V458.32ZM325.11 459.32V457.998H323.11V459.32H325.11ZM324.11 458.998C324.64 458.998 325.316 458.907 325.79 458.401C326.291 457.866 326.288 457.173 326.201 456.661L324.229 456.996C324.24 457.061 324.245 457.109 324.246 457.142C324.247 457.175 324.244 457.188 324.245 457.186C324.245 457.183 324.249 457.163 324.263 457.132C324.278 457.1 324.3 457.066 324.33 457.035C324.391 456.969 324.44 456.961 324.41 456.969C324.394 456.974 324.363 456.981 324.311 456.988C324.26 456.994 324.193 456.998 324.11 456.998V458.998ZM326.164 456.513L322.756 446.243L320.857 446.873L324.266 457.143L326.164 456.513ZM321.807 445.558H308.126V447.558H321.807V445.558ZM307.18 446.232L303.587 456.655L305.478 457.307L309.071 446.884L307.18 446.232ZM303.541 456.852C303.477 457.346 303.518 458.004 304.043 458.49C304.511 458.923 305.142 458.998 305.638 458.998V456.998C305.557 456.998 305.492 456.994 305.44 456.989C305.388 456.983 305.355 456.976 305.336 456.971C305.297 456.961 305.34 456.965 305.402 457.022C305.433 457.051 305.46 457.086 305.481 457.123C305.502 457.159 305.512 457.189 305.516 457.206C305.519 457.222 305.518 457.224 305.517 457.206C305.517 457.189 305.518 457.158 305.524 457.109L303.541 456.852ZM304.638 457.998V459.32H306.638V457.998H304.638ZM305.638 458.32H298.268V460.32H305.638V458.32ZM299.268 459.32V457.998H297.268V459.32H299.268ZM298.268 458.998C299.192 458.998 300.569 458.727 301.214 457.569L299.467 456.595C299.375 456.76 299.002 456.998 298.268 456.998V458.998ZM301.288 457.404L301.426 456.997L299.532 456.354L299.394 456.761L301.288 457.404ZM301.479 456.676V456.574H299.479V456.676H301.479ZM299.479 456.574V456.625H301.479V456.574H299.479ZM301.42 456.962L312.936 424.829L311.054 424.154L299.538 456.287L301.42 456.962ZM312.334 425.432L319.244 422.941L318.565 421.059L311.656 423.551L312.334 425.432ZM317.958 422.324L329.843 457L331.735 456.351L319.85 421.676L317.958 422.324ZM329.878 457.088L330.016 457.393L331.838 456.568L331.7 456.263L329.878 457.088ZM308.586 445.117H321.208V443.117H308.586V445.117ZM322.156 443.801L316.076 425.548L314.178 426.18L320.259 444.433L322.156 443.801ZM314.186 425.527L307.645 443.78L309.528 444.455L316.069 426.201L314.186 425.527Z" fill="#D4A154" mask="url(#path-46-inside-1_1_11)"/>
<defs>
<filter id="filter0_i_1_11" x="175.645" y="80" width="53.1093" height="23" filterUnits="userSpaceOnUse" color-interpolation-filters="sRGB">
<feFlood flood-opacity="0" result="BackgroundImageFix"/>
<feBlend mode="normal" in="SourceGraphic" in2="BackgroundImageFix" result="shape"/>
<feColorMatrix in="SourceAlpha" type="matrix" values="0 0 0 0 0 0 0 0 0 0 0 0 0 0 0 0 0 0 127 0" result="hardAlpha"/>
<feOffset dx="-0.3" dy="1.5"/>
<feComposite in2="hardAlpha" operator="arithmetic" k2="-1" k3="1"/>
<feColorMatrix type="matrix" values="0 0 0 0 0.831373 0 0 0 0 0.631373 0 0 0 0 0.329412 0 0 0 1 0"/>
<feBlend mode="normal" in2="shape" result="effect1_innerShadow_1_11"/>
</filter>
<filter id="filter1_i_1_11" x="252.464" y="80" width="53.1093" height="23" filterUnits="userSpaceOnUse" color-interpolation-filters="sRGB">
<feFlood flood-opacity="0" result="BackgroundImageFix"/>
<feBlend mode="normal" in="SourceGraphic" in2="BackgroundImageFix" result="shape"/>
<feColorMatrix in="SourceAlpha" type="matrix" values="0 0 0 0 0 0 0 0 0 0 0 0 0 0 0 0 0 0 127 0" result="hardAlpha"/>
<feOffset dx="-0.3" dy="1.5"/>
<feComposite in2="hardAlpha" operator="arithmetic" k2="-1" k3="1"/>
<feColorMatrix type="matrix" values="0 0 0 0 0.831373 0 0 0 0 0.631373 0 0 0 0 0.329412 0 0 0 1 0"/>
<feBlend mode="normal" in2="shape" result="effect1_innerShadow_1_11"/>
</filter>
</defs>
</svg>
